<svg width="1200" height="760" viewBox="0 0 1200 760" fill="none" xmlns="http://www.w3.org/2000/svg">
<defs>
  <linearGradient id="bg" x1="0" y1="0" x2="1200" y2="760" gradientUnits="userSpaceOnUse">
    <stop stop-color="#07142B"/>
    <stop offset="1" stop-color="#050A16"/>
  </linearGradient>
  <linearGradient id="panel" x1="80" y1="80" x2="1080" y2="680" gradientUnits="userSpaceOnUse">
    <stop stop-color="#0B2242"/>
    <stop offset="1" stop-color="#09162E"/>
  </linearGradient>
  <linearGradient id="accent" x1="220" y1="140" x2="980" y2="540" gradientUnits="userSpaceOnUse">
    <stop stop-color="#36D5FF"/>
    <stop offset="1" stop-color="#8A5DFF"/>
  </linearGradient>
  <filter id="glow" x="-160" y="-160" width="1520" height="1080" filterUnits="userSpaceOnUse" color-interpolation-filters="sRGB">
    <feGaussianBlur stdDeviation="42"/>
  </filter>
</defs>
<rect width="1200" height="760" rx="40" fill="url(#bg)"/>
<circle cx="980" cy="565" r="180" fill="#8A5DFF" fill-opacity="0.14" filter="url(#glow)"/>
<circle cx="190" cy="160" r="150" fill="#36D5FF" fill-opacity="0.14" filter="url(#glow)"/>
<rect x="64" y="64" width="1072" height="632" rx="42" fill="url(#panel)" stroke="#173058" stroke-width="2"/>
<rect x="118" y="120" width="250" height="430" rx="34" fill="#081221" stroke="#173058" stroke-width="2"/>
<rect x="418" y="132" width="650" height="120" rx="30" fill="#0C1C34" stroke="#1A3663" stroke-width="2"/>
<rect x="418" y="272" width="620" height="246" rx="34" fill="#091726" stroke="#173058" stroke-width="2"/>
<path d="M98 188C232 148 312 148 422 176" stroke="#173058" stroke-width="2"/>
<path d="M430 206C594 240 804 244 1060 194" stroke="#173058" stroke-width="2"/>
<path d="M104 624C252 594 390 602 540 636C698 670 848 666 1024 610" stroke="#173058" stroke-width="2"/>
<text x="430" y="116" font-size="18" letter-spacing="4" fill="#39D5FF" font-family="Inter, Arial, sans-serif" font-weight="700">TALENT RADAR</text>
<text x="430" y="205" font-size="36" fill="#F5F7FB" font-family="Inter, Arial, sans-serif" font-weight="700">Assessments that reveal strengths</text>
<text x="430" y="238" font-size="18" fill="#A8B8D1" font-family="Inter, Arial, sans-serif">Signals from tests, traits, interests, and best-fit paths</text>
<rect x="165" y="170" width="86" height="86" rx="24" fill="#0F2742"/>
<circle cx="208" cy="213" r="24" fill="none" stroke="url(#accent)" stroke-width="6"/>
<path d="M194 213L205 224L223 204" stroke="url(#accent)" stroke-width="6" stroke-linecap="round" stroke-linejoin="round"/>
<text x="160" y="286" font-size="30" fill="#F3F6FB" font-family="Inter, Arial, sans-serif" font-weight="700">Signals</text>
<g transform="translate(165,318)"><circle cx="0" cy="0" r="5" fill="#39D5FF"/><text x="16" y="6" font-size="18" fill="#B8C2D6" font-family="Inter, Arial, sans-serif">Personality</text></g><g transform="translate(165,360)"><circle cx="0" cy="0" r="5" fill="#39D5FF"/><text x="16" y="6" font-size="18" fill="#B8C2D6" font-family="Inter, Arial, sans-serif">Skills</text></g><g transform="translate(165,402)"><circle cx="0" cy="0" r="5" fill="#39D5FF"/><text x="16" y="6" font-size="18" fill="#B8C2D6" font-family="Inter, Arial, sans-serif">Interests</text></g>

        <g>
          <rect x="430" y="300" width="170" height="132" rx="28" fill="#0E2742" stroke="#1B3764" stroke-width="2"/>
          <text x="454" y="322" font-size="14" fill="#BCE7FF" font-family="Inter, Arial, sans-serif">Assessment</text>
          <text x="454" y="424" font-size="14" fill="#8FA2BF" font-family="Inter, Arial, sans-serif">input layer</text>
          
            <rect x="456" y="330" width="92" height="14" rx="7" fill="#C3CAD7" fill-opacity="0.9"/>
            <rect x="456" y="358" width="120" height="14" rx="7" fill="#56C6FF"/>
            <rect x="456" y="386" width="76" height="12" rx="6" fill="#7FA5C8" fill-opacity="0.45"/>
            
        </g>
        <g>
          <rect x="640" y="300" width="170" height="132" rx="28" fill="#122A4D" stroke="#2A4F89" stroke-width="2"/>
          <text x="664" y="322" font-size="14" fill="#BCE7FF" font-family="Inter, Arial, sans-serif">Strengths</text>
          <text x="664" y="424" font-size="14" fill="#8FA2BF" font-family="Inter, Arial, sans-serif">pattern match</text>
          
            <circle cx="700" cy="364" r="22" fill="#4D8CF1" fill-opacity="0.2" stroke="#66A3FF" stroke-width="6"/>
            <rect x="738" y="340" width="56" height="12" rx="6" fill="#C3CAD7" fill-opacity="0.9"/>
            <rect x="738" y="368" width="84" height="12" rx="6" fill="#8797B3" fill-opacity="0.75"/>
            <rect x="738" y="394" width="42" height="10" rx="5" fill="#7E9BFF" fill-opacity="0.7"/>
            
        </g>
        <g>
          <rect x="850" y="300" width="170" height="132" rx="28" fill="#201947" stroke="#4C3C8E" stroke-width="2"/>
          <text x="874" y="322" font-size="14" fill="#BCE7FF" font-family="Inter, Arial, sans-serif">Best fit</text>
          <text x="874" y="424" font-size="14" fill="#8FA2BF" font-family="Inter, Arial, sans-serif">clear direction</text>
          
            <path d="M882 404 C 920 354, 952 338, 986 326" stroke="#8A5DFF" stroke-width="10" stroke-linecap="round" fill="none"/>
            <circle cx="880" cy="406" r="12" fill="#36D5FF"/>
            <circle cx="961" cy="344" r="12" fill="#7C7CFF"/>
            <circle cx="988" cy="326" r="12" fill="#A968FF"/>
            
        </g>
<g transform="translate(160, 582)"><rect width="102" height="34" rx="17" fill="#0A1C33" stroke="#1B3764" stroke-width="2"/><text x="51" y="22" text-anchor="middle" font-size="14" fill="#9FE9FF" font-family="Inter, Arial, sans-serif">tests</text></g><g transform="translate(282, 582)"><rect width="102" height="34" rx="17" fill="#0A1C33" stroke="#1B3764" stroke-width="2"/><text x="51" y="22" text-anchor="middle" font-size="14" fill="#9FE9FF" font-family="Inter, Arial, sans-serif">traits</text></g><g transform="translate(404, 582)"><rect width="102" height="34" rx="17" fill="#0A1C33" stroke="#1B3764" stroke-width="2"/><text x="51" y="22" text-anchor="middle" font-size="14" fill="#9FE9FF" font-family="Inter, Arial, sans-serif">fit</text></g><g transform="translate(526, 582)"><rect width="102" height="34" rx="17" fill="#0A1C33" stroke="#1B3764" stroke-width="2"/><text x="51" y="22" text-anchor="middle" font-size="14" fill="#9FE9FF" font-family="Inter, Arial, sans-serif">focus</text></g>
<rect x="872" y="560" width="176" height="74" rx="24" fill="#061120" stroke="#1B3764" stroke-width="2"/>
<text x="892" y="592" font-size="18" fill="#F5F7FB" font-family="Inter, Arial, sans-serif" font-weight="600">Local SVG</text>
<text x="892" y="618" font-size="18" fill="#39D5FF" font-family="Inter, Arial, sans-serif">Topic-based + light</text>
</svg>